<?xml version="1.0" encoding="utf-8"?>
<!-- Generator: Adobe Illustrator 27.0.0, SVG Export Plug-In . SVG Version: 6.00 Build 0)  -->
<svg version="1.1" id="Outline" xmlns="http://www.w3.org/2000/svg" xmlns:xlink="http://www.w3.org/1999/xlink" x="0px" y="0px"
	 viewBox="0 0 512 512" style="enable-background:new 0 0 512 512;" xml:space="preserve">
<style type="text/css">
	.st0{fill:#1D3557;}
</style>
<path class="st0" d="M469.3,213.3H298.7V42.7C298.7,19.1,279.6,0,256,0l0,0c-23.6,0-42.7,19.1-42.7,42.7v170.7H42.7
	C19.1,213.3,0,232.4,0,256l0,0c0,23.6,19.1,42.7,42.7,42.7h170.7v170.7c0,23.6,19.1,42.7,42.7,42.7l0,0c23.6,0,42.7-19.1,42.7-42.7
	V298.7h170.7c23.6,0,42.7-19.1,42.7-42.7l0,0C512,232.4,492.9,213.3,469.3,213.3z"/>
</svg>
