<?xml version="1.0" encoding="utf-8"?>
<!-- Generator: Adobe Illustrator 27.0.0, SVG Export Plug-In . SVG Version: 6.00 Build 0)  -->
<svg version="1.1" id="Layer_1" xmlns="http://www.w3.org/2000/svg" xmlns:xlink="http://www.w3.org/1999/xlink" x="0px" y="0px"
	 viewBox="0 0 512 512" style="enable-background:new 0 0 512 512;" xml:space="preserve">
<style type="text/css">
	.st0{fill:#1D3557;}
</style>
<path class="st0" d="M448,256c0-11.8-1.1-23.5-3.2-35.1l64.9-37.4l-64-110.9l-64.9,37.5c-17.9-15.3-38.5-27.2-60.8-35.1V0H192v74.9
	c-22.2,7.9-42.8,19.8-60.8,35.1L66.3,72.5l-64,110.9l64.9,37.4c-4.3,23.2-4.3,47,0,70.2L2.3,328.5l64,110.9l64.9-37.5
	c17.9,15.3,38.5,27.2,60.8,35.1V512h128v-74.9c22.2-7.9,42.8-19.8,60.8-35.1l64.9,37.5l64-110.9l-64.9-37.4
	C446.9,279.5,448,267.8,448,256z M320,256c0,35.3-28.7,64-64,64s-64-28.7-64-64s28.7-64,64-64S320,220.7,320,256z"/>
</svg>
